<?xml version="1.0" encoding="UTF-8"?>
<svg width="26px" height="26px" viewBox="0 0 26 26" version="1.1" xmlns="http://www.w3.org/2000/svg" xmlns:xlink="http://www.w3.org/1999/xlink">
    <title>LuminaIconBlueStarLogoMark</title>
    <defs>
        <path d="M0,0 L26,0 L26,26 L0,26 L0,0 Z" id="path-1"></path>
    </defs>
    <g id="LuminaIconBlueStarLogoMark" stroke="none" fill="none" xlink:href="#path-1">
        <use fill="#FFFFFF" fill-rule="evenodd" xlink:href="#path-1"></use>
        <path d="M0.859466308,25.0948454 C2.83433995,27.069719 7.75650602,25.5209826 12.9771558,21.635062 C18.1978057,25.5228598 23.1180945,27.0715963 25.0948454,25.0948454 C27.0715963,23.1180945 25.5209826,18.1978057 21.635062,12.9771558 C25.5228598,7.75650602 27.0715963,2.83621721 25.0948454,0.859466308 C23.1199717,-1.11540734 18.1978057,0.433329124 12.9771558,4.3192497 C7.75650602,0.431451868 2.83621721,-1.11728459 0.859466308,0.859466308 C-1.11540734,2.83433995 0.433329124,7.75650602 4.3192497,12.9771558 C0.431451868,18.1978057 -1.11728459,23.1180945 0.859466308,25.0948454 Z" id="Path" fill="#0042FF" fill-rule="nonzero"></path>
    </g>
</svg>