<?xml version="1.0" encoding="UTF-8"?>
<svg width="781px" height="144px" viewBox="0 0 781 144" version="1.1" xmlns="http://www.w3.org/2000/svg" xmlns:xlink="http://www.w3.org/1999/xlink">
    <title>LuminaIconBlueStar</title>
    <defs>
        <path d="M0,0 L780.198311,0 L780.198311,143.73 L0,143.73 L0,0 Z" id="path-1"></path>
    </defs>
    <g id="LuminaIconBlueStar" stroke="none" fill="none" xlink:href="#path-1" fill-rule="evenodd">
        <use fill="#FFFFFF" xlink:href="#path-1"></use>
        <g id="Layer_1" stroke-width="1" transform="translate(-345.9317, -376.02)">
            <polygon id="Path" fill="#000000" fill-rule="nonzero" points="519.3 517.4 601.2 517.4 601.2 501.99 538.8 501.99 538.8 380.9 519.3 380.9"></polygon>
            <path d="M681.73,500.63 L683.09,517.4 L700.44,517.4 L700.44,419.12 L680.94,419.12 L680.94,471.57 C680.94,478.33 679.77,484.05 677.43,488.73 C675.09,493.41 671.87,496.99 667.78,499.46 C663.68,501.93 659.1,503.16 654.03,503.16 C646.49,503.16 640.7,500.82 636.68,496.14 C632.65,491.46 630.64,484.51 630.64,475.27 L630.64,419.11 L611.14,419.11 L611.14,477.41 C611.14,486.9 612.67,494.76 615.72,501 C618.77,507.24 623.13,511.92 628.78,515.04 C634.43,518.16 641.1,519.72 648.77,519.72 C656.44,519.72 662.94,518.03 668.66,514.65 C674.38,511.27 678.73,506.59 681.72,500.61 L681.73,500.63 Z" id="Path" fill="#000000" fill-rule="nonzero"></path>
            <path d="M740.81,465.14 C740.81,458.38 741.91,452.66 744.13,447.98 C746.34,443.3 749.33,439.73 753.1,437.26 C756.87,434.79 761.03,433.55 765.58,433.55 C772.73,433.55 778.16,435.89 781.86,440.57 C785.57,445.25 787.42,452.14 787.42,461.24 L787.42,517.4 L806.92,517.4 L806.92,465.14 C806.92,458.38 807.99,452.66 810.14,447.98 C812.29,443.3 815.24,439.73 819.01,437.26 C822.78,434.79 827.07,433.55 831.88,433.55 C839.03,433.55 844.46,435.89 848.16,440.57 C851.87,445.25 853.72,452.14 853.72,461.24 L853.72,517.4 L873.02,517.4 L873.02,459.29 C873.02,449.93 871.52,442.1 868.54,435.79 C865.55,429.49 861.19,424.74 855.47,421.56 C849.75,418.38 842.92,416.78 835,416.78 C828.37,416.78 822.1,418.41 816.18,421.66 C810.26,424.91 805.55,429.4 802.04,435.12 C800.09,431.09 797.56,427.71 794.43,424.98 C791.31,422.25 787.73,420.2 783.71,418.84 C779.68,417.47 775.19,416.79 770.25,416.79 C763.75,416.79 757.9,418.22 752.7,421.08 C747.5,423.94 743.34,427.91 740.22,432.98 L738.85,419.14 L721.3,419.14 L721.3,517.42 L740.8,517.42 L740.8,465.16 L740.81,465.14 Z" id="Path" fill="#000000" fill-rule="nonzero"></path>
            <path d="M890.77,388.11 C890.77,391.75 891.97,394.74 894.38,397.08 C896.78,399.42 899.87,400.59 903.64,400.59 C907.41,400.59 910.33,399.42 912.81,397.08 C915.28,394.74 916.52,391.75 916.52,388.11 C916.52,384.47 915.28,381.71 912.81,379.43 C910.34,377.16 907.28,376.02 903.64,376.02 C900,376.02 896.78,377.16 894.38,379.43 C891.97,381.71 890.77,384.6 890.77,388.11 Z" id="Path" fill="#000000" fill-rule="nonzero"></path>
            <rect id="Rectangle" fill="#000000" fill-rule="nonzero" x="893.69" y="419.12" width="19.5" height="98.28"></rect>
            <path d="M1006.6,421.46 C1001.01,418.34 994.32,416.78 986.52,416.78 C978.72,416.78 972.54,418.5 966.83,421.95 C961.11,425.4 956.69,430.04 953.57,435.89 L952.4,419.12 L934.85,419.12 L934.85,517.4 L954.35,517.4 L954.35,464.94 C954.35,458.18 955.55,452.46 957.96,447.78 C960.36,443.1 963.58,439.56 967.61,437.15 C971.64,434.75 976.19,433.54 981.26,433.54 C988.93,433.54 994.78,435.88 998.81,440.56 C1002.84,445.24 1004.85,452.13 1004.85,461.23 L1004.85,517.39 L1024.35,517.39 L1024.35,459.28 C1024.35,449.79 1022.79,441.89 1019.67,435.59 C1016.55,429.29 1012.19,424.57 1006.6,421.45 L1006.6,421.46 Z" id="Path" fill="#000000" fill-rule="nonzero"></path>
            <path d="M1095.62,514.28 C1098.28,512.59 1100.59,510.57 1102.54,508.24 C1104.49,505.9 1106.18,503.43 1107.61,500.83 L1109.17,517.41 L1126.13,517.41 L1126.13,456.57 C1126.13,448.38 1124.54,441.33 1121.35,435.41 C1118.16,429.5 1113.45,424.91 1107.21,421.66 C1100.97,418.41 1093.23,416.78 1084,416.78 C1076.98,416.78 1070.35,418.11 1064.11,420.78 C1057.87,423.45 1052.77,427.21 1048.8,432.09 C1044.83,436.97 1042.46,442.85 1041.68,449.74 L1061.18,449.74 C1062.22,444.28 1064.82,440.16 1068.98,437.36 C1073.14,434.57 1078.15,433.17 1083.99,433.17 C1089.06,433.17 1093.25,434.12 1096.57,436 C1099.89,437.89 1102.39,440.71 1104.08,444.48 C1105.77,448.25 1106.62,453 1106.62,458.72 L1081.08,458.72 C1072.37,458.72 1064.89,459.96 1058.66,462.42 C1052.42,464.89 1047.61,468.43 1044.23,473.05 C1040.85,477.67 1039.16,483.22 1039.16,489.72 C1039.16,495.05 1040.46,500.02 1043.06,504.64 C1045.66,509.26 1049.62,512.93 1054.96,515.66 C1060.29,518.39 1066.98,519.75 1075.04,519.75 C1079.2,519.75 1083,519.26 1086.45,518.29 C1089.89,517.31 1092.95,515.98 1095.62,514.29 L1095.62,514.28 Z M1068.41,501.99 C1065.55,500.69 1063.37,498.9 1061.88,496.63 C1060.38,494.36 1059.64,491.59 1059.64,488.34 C1059.64,485.09 1060.42,482.49 1061.98,480.15 C1063.54,477.81 1066.04,475.96 1069.49,474.59 C1072.93,473.23 1077.45,472.54 1083.04,472.54 L1106.25,472.54 L1106.25,473.12 C1106.12,477.02 1105.44,480.82 1104.2,484.53 C1102.96,488.24 1101.14,491.55 1098.74,494.48 C1096.33,497.4 1093.44,499.71 1090.06,501.4 C1086.68,503.09 1082.91,503.94 1078.75,503.94 C1074.59,503.94 1071.27,503.29 1068.42,501.99 L1068.41,501.99 Z" id="Shape" fill="#000000" fill-rule="nonzero"></path>
            <path d="M350.51,514.69 C361.03,525.21 387.25,516.96 415.06,496.26 C442.87,516.97 469.08,525.22 479.61,514.69 C490.14,504.16 481.88,477.95 461.18,450.14 C481.89,422.33 490.14,396.12 479.61,385.59 C469.09,375.07 442.87,383.32 415.06,404.02 C387.25,383.31 361.04,375.06 350.51,385.59 C339.99,396.11 348.24,422.33 368.94,450.14 C348.23,477.95 339.98,504.16 350.51,514.69 Z" id="Path" fill="#0042FF" fill-rule="nonzero"></path>
        </g>
    </g>
</svg>